# xmcd
#
# Track frame offsets:
#	150
#	15706
#	31170
#	44622
#	63817
#	81541
#	95940
#	111664
#	127870
#	140366
#	155920
#	171435
#	186713
#	198312
#	210875
#	223715
#	245068
#
# Disc length: 3485 seconds
#
# Revision: 0
# Processed by: cddbd v1.5.2PL0 Copyright (c) Steve Scherf et al.
# Submitted via: audiograbber 1.83.01
#
DISCID=080d9b11
DTITLE=Various Artist - CDX Volume 583 (November 11, 2013)
DYEAR=2013
DGENRE=Country
TTITLE0=Hank Williams Jr. - Angels Are Hard To Find
TTITLE1=Luke Bryan - Drink A Beer 
TTITLE2=Toby Keith - Shut Up And Hold On
TTITLE3=Eric Church - The Outsiders 
TTITLE4=Billy Currington - We Are Tonight 
TTITLE5=Tyler Farr - Whiskey In My Water 
TTITLE6=Jimmy Eugene - Eyes Can And Do Lie 
TTITLE7=Robby Johnson - South Of Me
TTITLE8=Seth Hopkins - 'Til the Town Burns Down
TTITLE9=Crescent Super Band - Boogie Woogie Santa Claus
TTITLE10=Due West - Coming Soon To Bethlehem
TTITLE11=Rusty Rierson - Cowboy Country Christmas Card
TTITLE12=Trae Edwards - It's The Most Wonderful Time Of The Year
TTITLE13=Sawyer Brown - Just One Night
TTITLE14=Clinton Gregory - Peace On Earth Again
TTITLE15=Sawyer Brown - The First Noel
TTITLE16=Casey Donahew and Cody Johnson - When Santa Rides Through Texas
EXTD=
EXTT0=
EXTT1=
EXTT2=
EXTT3=
EXTT4=
EXTT5=
EXTT6=
EXTT7=
EXTT8=
EXTT9=
EXTT10=
EXTT11=
EXTT12=
EXTT13=
EXTT14=
EXTT15=
EXTT16=
PLAYORDER=
